<?xml version="1.0" encoding="UTF-8" standalone="no"?>
<!DOCTYPE svg PUBLIC "-//W3C//DTD SVG 1.1//EN" "http://www.w3.org/Graphics/SVG/1.1/DTD/svg11.dtd">
<svg width="100%" height="100%" viewBox="0 0 444 263" version="1.1" xmlns="http://www.w3.org/2000/svg" xmlns:xlink="http://www.w3.org/1999/xlink" xml:space="preserve" xmlns:serif="http://www.serif.com/" style="fill-rule:evenodd;clip-rule:evenodd;stroke-linejoin:round;stroke-miterlimit:2;">
    <g transform="matrix(-0.603825,-0.603825,0.603825,-0.603825,-5290.88,11680.4)">
        <path d="M5074.5,13845.5C5074.5,13845.5 5137,13879.9 5137,13924.5C5137,13959 5108.99,13987 5074.5,13987C5040.01,13987 5012,13959 5012,13924.5C5012,13879.9 5074.5,13845.5 5074.5,13845.5Z" style="fill:url(#_Linear1);"/>
    </g>
    <g transform="matrix(0.766564,-0.442576,0.442576,0.766564,-9638.51,-8272)">
        <path d="M4796.35,13671.2C4796.35,13628.2 4856.64,13595 4856.64,13595C4856.64,13595 4916.94,13628.2 4916.94,13671.2C4916.94,13671.2 4916.94,13867.3 4916.94,13867.3C4916.94,13900.6 4889.92,13927.6 4856.64,13927.6C4823.36,13927.6 4796.35,13900.6 4796.35,13867.3C4796.35,13867.3 4796.35,13671.2 4796.35,13671.2Z" style="fill:url(#_Linear2);"/>
    </g>
    <g transform="matrix(0.766564,-0.442576,0.442576,0.766564,-9469.69,-8272)">
        <path d="M4796.35,13671.2C4796.35,13628.2 4856.64,13595 4856.64,13595C4856.64,13595 4916.94,13628.2 4916.94,13671.2C4916.94,13671.2 4916.94,13867.3 4916.94,13867.3C4916.94,13900.6 4889.92,13927.6 4856.64,13927.6C4823.36,13927.6 4796.35,13900.6 4796.35,13867.3C4796.35,13867.3 4796.35,13671.2 4796.35,13671.2Z" style="fill:url(#_Linear3);"/>
    </g>
    <defs>
        <linearGradient id="_Linear1" x1="0" y1="0" x2="1" y2="0" gradientUnits="userSpaceOnUse" gradientTransform="matrix(5.22373e-16,-141.487,160.148,5.91271e-16,5074.5,13987)"><stop offset="0" style="stop-color:rgb(111,23,186);stop-opacity:1"/><stop offset="1" style="stop-color:rgb(176,56,250);stop-opacity:1"/></linearGradient>
        <linearGradient id="_Linear2" x1="0" y1="0" x2="1" y2="0" gradientUnits="userSpaceOnUse" gradientTransform="matrix(2.03654e-14,-332.592,917.287,5.61676e-14,4856.64,13927.6)"><stop offset="0" style="stop-color:rgb(196,27,175);stop-opacity:1"/><stop offset="1" style="stop-color:rgb(245,37,134);stop-opacity:1"/></linearGradient>
        <linearGradient id="_Linear3" x1="0" y1="0" x2="1" y2="0" gradientUnits="userSpaceOnUse" gradientTransform="matrix(2.03654e-14,-332.592,917.287,5.61676e-14,4856.64,13927.6)"><stop offset="0" style="stop-color:rgb(48,84,182);stop-opacity:1"/><stop offset="1" style="stop-color:rgb(0,164,252);stop-opacity:1"/></linearGradient>
    </defs>
</svg>
