<?xml version="1.0" encoding="UTF-8" standalone="no"?>
<!DOCTYPE svg PUBLIC "-//W3C//DTD SVG 1.1//EN" "http://www.w3.org/Graphics/SVG/1.1/DTD/svg11.dtd">
<svg width="100%" height="100%" viewBox="0 0 788 97" version="1.1" xmlns="http://www.w3.org/2000/svg" xmlns:xlink="http://www.w3.org/1999/xlink" xml:space="preserve" xmlns:serif="http://www.serif.com/" style="fill-rule:evenodd;clip-rule:evenodd;stroke-linejoin:round;stroke-miterlimit:2;">
    <g transform="matrix(0.358637,0,0,0.442707,-3370.29,-2535.37)">
        <g transform="matrix(-0.569944,-0.461713,0.569944,-0.461713,4403.48,14658.4)">
            <path d="M5074.5,13845.5C5074.5,13845.5 5137,13879.9 5137,13924.5C5137,13959 5108.99,13987 5074.5,13987C5040.01,13987 5012,13959 5012,13924.5C5012,13879.9 5074.5,13845.5 5074.5,13845.5Z" style="fill:url(#_Linear1);"/>
        </g>
        <g transform="matrix(0.723552,-0.338414,0.417743,0.586151,299.802,-598.176)">
            <path d="M4796.35,13671.2C4796.35,13628.2 4856.64,13595 4856.64,13595C4856.64,13595 4916.94,13628.2 4916.94,13671.2C4916.94,13671.2 4916.94,13867.3 4916.94,13867.3C4916.94,13900.6 4889.92,13927.6 4856.64,13927.6C4823.36,13927.6 4796.35,13900.6 4796.35,13867.3C4796.35,13867.3 4796.35,13671.2 4796.35,13671.2Z" style="fill:url(#_Linear2);"/>
        </g>
        <g transform="matrix(0.723552,-0.338414,0.417743,0.586151,459.141,-598.176)">
            <path d="M4796.35,13671.2C4796.35,13628.2 4856.64,13595 4856.64,13595C4856.64,13595 4916.94,13628.2 4916.94,13671.2C4916.94,13671.2 4916.94,13867.3 4916.94,13867.3C4916.94,13900.6 4889.92,13927.6 4856.64,13927.6C4823.36,13927.6 4796.35,13900.6 4796.35,13867.3C4796.35,13867.3 4796.35,13671.2 4796.35,13671.2Z" style="fill:url(#_Linear3);"/>
        </g>
    </g>
    <g transform="matrix(5.71409,0,0,5.71409,-7128.7,-73047.1)">
        <g>
            <g transform="matrix(16,0,0,16,1281.45,12796.9)">
                <path d="M0.366,0.005C0.314,0.005 0.267,-0.007 0.226,-0.032C0.185,-0.056 0.152,-0.089 0.128,-0.131C0.103,-0.172 0.091,-0.219 0.09,-0.271L0.09,-0.738C0.09,-0.751 0.094,-0.762 0.102,-0.77C0.109,-0.777 0.12,-0.781 0.133,-0.781C0.146,-0.781 0.156,-0.777 0.164,-0.77C0.171,-0.762 0.175,-0.751 0.175,-0.738L0.175,-0.452C0.197,-0.482 0.226,-0.506 0.261,-0.525C0.296,-0.543 0.336,-0.552 0.379,-0.552C0.43,-0.552 0.475,-0.54 0.515,-0.516C0.555,-0.491 0.587,-0.458 0.61,-0.416C0.632,-0.374 0.644,-0.327 0.644,-0.274C0.644,-0.221 0.632,-0.173 0.608,-0.131C0.583,-0.089 0.55,-0.056 0.509,-0.032C0.467,-0.007 0.419,0.005 0.366,0.005ZM0.366,-0.071C0.403,-0.071 0.437,-0.08 0.467,-0.098C0.496,-0.116 0.52,-0.14 0.537,-0.171C0.554,-0.201 0.562,-0.235 0.562,-0.274C0.562,-0.312 0.554,-0.346 0.537,-0.377C0.52,-0.408 0.496,-0.432 0.467,-0.45C0.437,-0.467 0.403,-0.476 0.366,-0.476C0.33,-0.476 0.297,-0.467 0.268,-0.45C0.238,-0.432 0.215,-0.408 0.198,-0.377C0.181,-0.346 0.173,-0.312 0.173,-0.274C0.173,-0.235 0.181,-0.201 0.198,-0.171C0.215,-0.14 0.238,-0.116 0.268,-0.098C0.297,-0.08 0.33,-0.071 0.366,-0.071Z" style="fill:white;fill-rule:nonzero;"/>
            </g>
            <g transform="matrix(16,0,0,16,1292.77,12796.9)">
                <path d="M0.326,0.006C0.279,0.006 0.237,-0.004 0.2,-0.024C0.163,-0.043 0.133,-0.072 0.112,-0.11C0.091,-0.148 0.08,-0.195 0.08,-0.25L0.08,-0.505C0.08,-0.517 0.084,-0.527 0.092,-0.535C0.1,-0.543 0.11,-0.547 0.122,-0.547C0.134,-0.547 0.144,-0.543 0.152,-0.535C0.16,-0.527 0.164,-0.517 0.164,-0.505L0.164,-0.25C0.164,-0.209 0.172,-0.176 0.187,-0.151C0.202,-0.125 0.223,-0.106 0.249,-0.093C0.275,-0.08 0.304,-0.073 0.337,-0.073C0.368,-0.073 0.397,-0.079 0.422,-0.092C0.447,-0.104 0.467,-0.121 0.482,-0.142C0.497,-0.163 0.504,-0.187 0.504,-0.214L0.561,-0.214C0.56,-0.172 0.549,-0.134 0.528,-0.102C0.507,-0.069 0.479,-0.042 0.444,-0.023C0.409,-0.004 0.369,0.006 0.326,0.006ZM0.546,-0C0.533,-0 0.523,-0.004 0.516,-0.012C0.508,-0.019 0.504,-0.03 0.504,-0.043L0.504,-0.505C0.504,-0.518 0.508,-0.528 0.516,-0.536C0.523,-0.543 0.533,-0.547 0.546,-0.547C0.559,-0.547 0.569,-0.543 0.577,-0.536C0.585,-0.528 0.589,-0.518 0.589,-0.505L0.589,-0.043C0.589,-0.03 0.585,-0.019 0.577,-0.012C0.569,-0.004 0.559,-0 0.546,-0Z" style="fill:white;fill-rule:nonzero;"/>
            </g>
            <g transform="matrix(16,0,0,16,1303.6,12796.9)">
                <path d="M0.366,0.005C0.314,0.005 0.267,-0.007 0.226,-0.032C0.185,-0.056 0.152,-0.089 0.128,-0.131C0.103,-0.172 0.091,-0.219 0.09,-0.271L0.09,-0.738C0.09,-0.751 0.094,-0.762 0.102,-0.77C0.109,-0.777 0.12,-0.781 0.133,-0.781C0.146,-0.781 0.156,-0.777 0.164,-0.77C0.171,-0.762 0.175,-0.751 0.175,-0.738L0.175,-0.452C0.197,-0.482 0.226,-0.506 0.261,-0.525C0.296,-0.543 0.336,-0.552 0.379,-0.552C0.43,-0.552 0.475,-0.54 0.515,-0.516C0.555,-0.491 0.587,-0.458 0.61,-0.416C0.632,-0.374 0.644,-0.327 0.644,-0.274C0.644,-0.221 0.632,-0.173 0.608,-0.131C0.583,-0.089 0.55,-0.056 0.509,-0.032C0.467,-0.007 0.419,0.005 0.366,0.005ZM0.366,-0.071C0.403,-0.071 0.437,-0.08 0.467,-0.098C0.496,-0.116 0.52,-0.14 0.537,-0.171C0.554,-0.201 0.562,-0.235 0.562,-0.274C0.562,-0.312 0.554,-0.346 0.537,-0.377C0.52,-0.408 0.496,-0.432 0.467,-0.45C0.437,-0.467 0.403,-0.476 0.366,-0.476C0.33,-0.476 0.297,-0.467 0.268,-0.45C0.238,-0.432 0.215,-0.408 0.198,-0.377C0.181,-0.346 0.173,-0.312 0.173,-0.274C0.173,-0.235 0.181,-0.201 0.198,-0.171C0.215,-0.14 0.238,-0.116 0.268,-0.098C0.297,-0.08 0.33,-0.071 0.366,-0.071Z" style="fill:white;fill-rule:nonzero;"/>
            </g>
            <g transform="matrix(16,0,0,16,1314.91,12796.9)">
                <path d="M0.366,0.005C0.314,0.005 0.267,-0.007 0.226,-0.032C0.185,-0.056 0.152,-0.089 0.128,-0.131C0.103,-0.172 0.091,-0.219 0.09,-0.271L0.09,-0.738C0.09,-0.751 0.094,-0.762 0.102,-0.77C0.109,-0.777 0.12,-0.781 0.133,-0.781C0.146,-0.781 0.156,-0.777 0.164,-0.77C0.171,-0.762 0.175,-0.751 0.175,-0.738L0.175,-0.452C0.197,-0.482 0.226,-0.506 0.261,-0.525C0.296,-0.543 0.336,-0.552 0.379,-0.552C0.43,-0.552 0.475,-0.54 0.515,-0.516C0.555,-0.491 0.587,-0.458 0.61,-0.416C0.632,-0.374 0.644,-0.327 0.644,-0.274C0.644,-0.221 0.632,-0.173 0.608,-0.131C0.583,-0.089 0.55,-0.056 0.509,-0.032C0.467,-0.007 0.419,0.005 0.366,0.005ZM0.366,-0.071C0.403,-0.071 0.437,-0.08 0.467,-0.098C0.496,-0.116 0.52,-0.14 0.537,-0.171C0.554,-0.201 0.562,-0.235 0.562,-0.274C0.562,-0.312 0.554,-0.346 0.537,-0.377C0.52,-0.408 0.496,-0.432 0.467,-0.45C0.437,-0.467 0.403,-0.476 0.366,-0.476C0.33,-0.476 0.297,-0.467 0.268,-0.45C0.238,-0.432 0.215,-0.408 0.198,-0.377C0.181,-0.346 0.173,-0.312 0.173,-0.274C0.173,-0.235 0.181,-0.201 0.198,-0.171C0.215,-0.14 0.238,-0.116 0.268,-0.098C0.297,-0.08 0.33,-0.071 0.366,-0.071Z" style="fill:white;fill-rule:nonzero;"/>
            </g>
            <g transform="matrix(16,0,0,16,1326.22,12796.9)">
                <path d="M0.212,-0C0.184,-0 0.159,-0.008 0.138,-0.023C0.117,-0.038 0.1,-0.058 0.088,-0.085C0.076,-0.112 0.07,-0.142 0.07,-0.177L0.07,-0.739C0.07,-0.752 0.074,-0.762 0.082,-0.77C0.089,-0.777 0.099,-0.781 0.112,-0.781C0.124,-0.781 0.134,-0.777 0.142,-0.77C0.149,-0.762 0.153,-0.752 0.153,-0.739L0.153,-0.177C0.153,-0.15 0.159,-0.127 0.17,-0.11C0.181,-0.092 0.195,-0.083 0.212,-0.083L0.237,-0.083C0.248,-0.083 0.256,-0.079 0.263,-0.072C0.27,-0.064 0.273,-0.054 0.273,-0.042C0.273,-0.029 0.268,-0.019 0.259,-0.012C0.249,-0.004 0.236,-0 0.221,-0L0.212,-0Z" style="fill:white;fill-rule:nonzero;"/>
            </g>
            <g transform="matrix(16,0,0,16,1330.25,12796.9)">
                <path d="M0.341,0.005C0.286,0.005 0.238,-0.007 0.196,-0.031C0.154,-0.054 0.121,-0.087 0.097,-0.129C0.073,-0.171 0.061,-0.219 0.061,-0.273C0.061,-0.328 0.072,-0.376 0.095,-0.418C0.118,-0.459 0.149,-0.492 0.189,-0.516C0.228,-0.54 0.274,-0.552 0.326,-0.552C0.377,-0.552 0.421,-0.541 0.459,-0.518C0.496,-0.494 0.525,-0.463 0.546,-0.422C0.566,-0.381 0.576,-0.335 0.576,-0.283C0.576,-0.272 0.572,-0.263 0.565,-0.256C0.558,-0.249 0.548,-0.245 0.537,-0.245L0.119,-0.245L0.119,-0.314L0.542,-0.314L0.499,-0.284C0.5,-0.321 0.493,-0.354 0.479,-0.383C0.465,-0.412 0.445,-0.435 0.419,-0.452C0.393,-0.469 0.362,-0.477 0.326,-0.477C0.288,-0.477 0.255,-0.468 0.227,-0.451C0.198,-0.434 0.177,-0.409 0.162,-0.379C0.147,-0.347 0.139,-0.312 0.139,-0.273C0.139,-0.234 0.148,-0.199 0.165,-0.168C0.182,-0.137 0.206,-0.113 0.237,-0.096C0.267,-0.079 0.302,-0.07 0.341,-0.07C0.364,-0.07 0.387,-0.074 0.411,-0.082C0.434,-0.09 0.453,-0.1 0.467,-0.112C0.475,-0.118 0.484,-0.121 0.495,-0.122C0.505,-0.122 0.513,-0.119 0.52,-0.113C0.53,-0.104 0.535,-0.095 0.536,-0.085C0.536,-0.075 0.531,-0.066 0.522,-0.059C0.5,-0.04 0.472,-0.025 0.438,-0.013C0.404,-0.001 0.372,0.005 0.341,0.005Z" style="fill:white;fill-rule:nonzero;"/>
            </g>
            <g transform="matrix(16,0,0,16,1340.08,12796.9)">
                <path d="M0.823,-0C0.81,-0 0.8,-0.004 0.792,-0.012C0.784,-0.019 0.78,-0.029 0.78,-0.042L0.78,-0.329C0.78,-0.375 0.768,-0.411 0.745,-0.436C0.722,-0.461 0.691,-0.474 0.654,-0.474C0.615,-0.474 0.583,-0.461 0.558,-0.434C0.533,-0.407 0.52,-0.372 0.52,-0.329L0.447,-0.329C0.448,-0.374 0.457,-0.413 0.476,-0.447C0.495,-0.48 0.521,-0.506 0.554,-0.525C0.587,-0.544 0.624,-0.553 0.666,-0.553C0.705,-0.553 0.739,-0.544 0.769,-0.526C0.799,-0.508 0.823,-0.482 0.84,-0.449C0.857,-0.415 0.865,-0.375 0.865,-0.329L0.865,-0.042C0.865,-0.029 0.861,-0.019 0.853,-0.012C0.845,-0.004 0.835,-0 0.823,-0ZM0.133,-0C0.12,-0 0.109,-0.004 0.102,-0.012C0.094,-0.019 0.09,-0.029 0.09,-0.042L0.09,-0.504C0.09,-0.517 0.094,-0.527 0.102,-0.535C0.109,-0.543 0.12,-0.547 0.133,-0.547C0.146,-0.547 0.156,-0.543 0.164,-0.535C0.171,-0.527 0.175,-0.517 0.175,-0.504L0.175,-0.042C0.175,-0.029 0.171,-0.019 0.164,-0.012C0.156,-0.004 0.146,-0 0.133,-0ZM0.478,-0C0.466,-0 0.456,-0.004 0.448,-0.012C0.44,-0.019 0.436,-0.029 0.436,-0.042L0.436,-0.329C0.436,-0.375 0.424,-0.411 0.401,-0.436C0.377,-0.461 0.347,-0.474 0.31,-0.474C0.271,-0.474 0.238,-0.461 0.213,-0.435C0.188,-0.409 0.175,-0.375 0.175,-0.333L0.117,-0.333C0.118,-0.376 0.128,-0.415 0.145,-0.448C0.162,-0.481 0.186,-0.506 0.217,-0.525C0.248,-0.544 0.283,-0.553 0.322,-0.553C0.361,-0.553 0.395,-0.544 0.425,-0.526C0.455,-0.508 0.478,-0.482 0.495,-0.449C0.512,-0.415 0.52,-0.375 0.52,-0.329L0.52,-0.042C0.52,-0.029 0.516,-0.019 0.509,-0.012C0.501,-0.004 0.491,-0 0.478,-0Z" style="fill:white;fill-rule:nonzero;"/>
            </g>
            <g transform="matrix(16,0,0,16,1355.23,12796.9)">
                <path d="M0.327,0.005C0.276,0.005 0.231,-0.007 0.191,-0.032C0.151,-0.056 0.119,-0.089 0.096,-0.131C0.073,-0.173 0.061,-0.22 0.061,-0.273C0.061,-0.326 0.073,-0.374 0.098,-0.416C0.122,-0.458 0.155,-0.491 0.197,-0.516C0.239,-0.54 0.286,-0.552 0.339,-0.552C0.391,-0.552 0.438,-0.54 0.48,-0.516C0.521,-0.491 0.554,-0.458 0.579,-0.416C0.603,-0.374 0.615,-0.326 0.616,-0.273L0.582,-0.256C0.582,-0.207 0.571,-0.162 0.549,-0.123C0.526,-0.084 0.496,-0.053 0.458,-0.03C0.419,-0.007 0.376,0.005 0.327,0.005ZM0.339,-0.071C0.376,-0.071 0.409,-0.08 0.439,-0.098C0.467,-0.115 0.491,-0.139 0.508,-0.17C0.525,-0.201 0.533,-0.235 0.533,-0.273C0.533,-0.312 0.525,-0.346 0.508,-0.377C0.491,-0.407 0.467,-0.431 0.439,-0.449C0.409,-0.467 0.376,-0.476 0.339,-0.476C0.302,-0.476 0.269,-0.467 0.24,-0.449C0.21,-0.431 0.186,-0.407 0.169,-0.377C0.152,-0.346 0.143,-0.312 0.143,-0.273C0.143,-0.235 0.152,-0.201 0.169,-0.17C0.186,-0.139 0.21,-0.115 0.24,-0.098C0.269,-0.08 0.302,-0.071 0.339,-0.071ZM0.573,-0C0.561,-0 0.551,-0.004 0.543,-0.012C0.534,-0.019 0.53,-0.029 0.53,-0.042L0.53,-0.207L0.549,-0.294L0.616,-0.273L0.616,-0.042C0.616,-0.029 0.612,-0.019 0.604,-0.012C0.596,-0.004 0.586,-0 0.573,-0Z" style="fill:white;fill-rule:nonzero;"/>
            </g>
            <g transform="matrix(16,0,0,16,1366.06,12796.9)">
                <path d="M0.133,0.234C0.12,0.234 0.109,0.23 0.102,0.223C0.094,0.215 0.09,0.204 0.09,0.191L0.09,-0.276C0.091,-0.328 0.103,-0.375 0.128,-0.417C0.152,-0.458 0.185,-0.491 0.226,-0.516C0.267,-0.54 0.314,-0.552 0.366,-0.552C0.419,-0.552 0.467,-0.54 0.509,-0.516C0.55,-0.491 0.583,-0.458 0.608,-0.416C0.632,-0.374 0.644,-0.326 0.644,-0.273C0.644,-0.22 0.632,-0.173 0.61,-0.131C0.587,-0.089 0.555,-0.056 0.515,-0.032C0.475,-0.007 0.43,0.005 0.379,0.005C0.336,0.005 0.296,-0.004 0.261,-0.023C0.226,-0.041 0.197,-0.065 0.175,-0.095L0.175,0.191C0.175,0.204 0.171,0.215 0.163,0.223C0.155,0.23 0.145,0.234 0.133,0.234ZM0.366,-0.071C0.403,-0.071 0.437,-0.08 0.467,-0.098C0.496,-0.115 0.52,-0.139 0.537,-0.17C0.554,-0.201 0.562,-0.235 0.562,-0.273C0.562,-0.312 0.554,-0.346 0.537,-0.377C0.52,-0.407 0.496,-0.431 0.467,-0.449C0.437,-0.467 0.403,-0.476 0.366,-0.476C0.33,-0.476 0.297,-0.467 0.268,-0.449C0.238,-0.431 0.215,-0.407 0.198,-0.377C0.181,-0.346 0.173,-0.312 0.173,-0.273C0.173,-0.235 0.181,-0.201 0.198,-0.17C0.215,-0.139 0.238,-0.115 0.267,-0.098C0.296,-0.08 0.329,-0.071 0.366,-0.071Z" style="fill:white;fill-rule:nonzero;"/>
            </g>
            <g transform="matrix(16,0,0,16,1377.37,12796.9)">
                <path d="M0.283,0.005C0.242,0.005 0.202,-0.002 0.163,-0.016C0.124,-0.029 0.092,-0.049 0.069,-0.074C0.061,-0.083 0.058,-0.093 0.059,-0.104C0.06,-0.115 0.066,-0.125 0.075,-0.132C0.086,-0.14 0.096,-0.143 0.108,-0.142C0.118,-0.141 0.128,-0.136 0.135,-0.128C0.15,-0.111 0.17,-0.097 0.196,-0.087C0.222,-0.076 0.251,-0.071 0.282,-0.071C0.328,-0.071 0.362,-0.079 0.384,-0.095C0.405,-0.11 0.416,-0.13 0.417,-0.153C0.417,-0.176 0.406,-0.195 0.385,-0.21C0.363,-0.225 0.326,-0.237 0.274,-0.246C0.207,-0.257 0.158,-0.276 0.127,-0.303C0.095,-0.33 0.08,-0.362 0.08,-0.399C0.08,-0.433 0.089,-0.461 0.108,-0.484C0.127,-0.507 0.151,-0.524 0.182,-0.535C0.212,-0.546 0.245,-0.552 0.28,-0.552C0.325,-0.552 0.363,-0.545 0.396,-0.53C0.429,-0.515 0.455,-0.494 0.475,-0.469C0.482,-0.46 0.486,-0.45 0.485,-0.44C0.484,-0.429 0.478,-0.421 0.468,-0.415C0.459,-0.409 0.449,-0.407 0.438,-0.409C0.426,-0.411 0.416,-0.416 0.408,-0.425C0.391,-0.443 0.372,-0.456 0.351,-0.465C0.33,-0.473 0.305,-0.477 0.278,-0.477C0.243,-0.477 0.215,-0.47 0.194,-0.457C0.173,-0.443 0.162,-0.425 0.162,-0.404C0.162,-0.389 0.166,-0.377 0.174,-0.366C0.181,-0.355 0.195,-0.346 0.215,-0.338C0.234,-0.329 0.262,-0.322 0.299,-0.315C0.349,-0.306 0.389,-0.294 0.418,-0.279C0.447,-0.263 0.467,-0.245 0.48,-0.224C0.492,-0.203 0.498,-0.18 0.498,-0.155C0.498,-0.124 0.489,-0.096 0.472,-0.073C0.454,-0.049 0.429,-0.03 0.397,-0.016C0.365,-0.002 0.327,0.005 0.283,0.005Z" style="fill:white;fill-rule:nonzero;"/>
            </g>
        </g>
    </g>
    <defs>
        <linearGradient id="_Linear1" x1="0" y1="0" x2="1" y2="0" gradientUnits="userSpaceOnUse" gradientTransform="matrix(5.22373e-16,-141.487,160.148,5.91271e-16,5074.5,13987)"><stop offset="0" style="stop-color:rgb(111,23,186);stop-opacity:1"/><stop offset="1" style="stop-color:rgb(176,56,250);stop-opacity:1"/></linearGradient>
        <linearGradient id="_Linear2" x1="0" y1="0" x2="1" y2="0" gradientUnits="userSpaceOnUse" gradientTransform="matrix(2.03654e-14,-332.592,917.287,5.61676e-14,4856.64,13927.6)"><stop offset="0" style="stop-color:rgb(196,27,175);stop-opacity:1"/><stop offset="1" style="stop-color:rgb(245,37,134);stop-opacity:1"/></linearGradient>
        <linearGradient id="_Linear3" x1="0" y1="0" x2="1" y2="0" gradientUnits="userSpaceOnUse" gradientTransform="matrix(2.03654e-14,-332.592,917.287,5.61676e-14,4856.64,13927.6)"><stop offset="0" style="stop-color:rgb(48,84,182);stop-opacity:1"/><stop offset="1" style="stop-color:rgb(0,164,252);stop-opacity:1"/></linearGradient>
    </defs>
</svg>
